<svg width="32" height="31" viewBox="0 0 32 31" fill="none" xmlns="http://www.w3.org/2000/svg">
<path fill-rule="evenodd" clip-rule="evenodd" d="M21.0369 2.92615H4.66649C3.97389 2.92615 3.40723 3.49281 3.40723 4.18541V21.815L8.44426 16.778H21.0369C21.7294 16.778 22.2961 16.2113 22.2961 15.5187V4.18541C22.2961 3.49281 21.7294 2.92615 21.0369 2.92615ZM19.7776 5.44458V14.2594H7.39909L6.65613 15.0024L5.92576 15.7327V5.44458H19.7776ZM24.8146 7.96321H27.3332C28.0257 7.96321 28.5924 8.52987 28.5924 9.22247V28.1114L23.5554 23.0743H9.70352C9.01093 23.0743 8.44426 22.5077 8.44426 21.8151V19.2965H24.8146V7.96321Z" fill="white"/>
</svg>
