<svg width="28" height="28" viewBox="0 0 28 28" fill="none" xmlns="http://www.w3.org/2000/svg">
<path fill-rule="evenodd" clip-rule="evenodd" d="M4.11138 4.66626H24.1114C25.3336 4.66626 26.3336 5.66626 26.3336 6.88848V21.3329C26.3336 22.5551 25.3336 23.5551 24.1114 23.5551H4.11138C2.88916 23.5551 1.88916 22.5551 1.88916 21.3329V6.88848C1.88916 5.66626 2.88916 4.66626 4.11138 4.66626ZM4.11138 6.88848V21.3329H13.0003V6.88848H4.11138ZM24.1114 21.3329H15.2225V6.88848H24.1114V21.3329ZM23.0003 10.7774H16.3336V12.444H23.0003V10.7774ZM16.3336 13.5551H23.0003V15.2218H16.3336V13.5551ZM23.0003 16.3329H16.3336V17.9996H23.0003V16.3329Z" fill="white"/>
</svg>
